<svg width="21" height="21" viewBox="0 0 21 21" fill="none" xmlns="http://www.w3.org/2000/svg">
<path d="M5.65278 0.0234C5.45214 -0.026433 5.23993 0.00525866 5.06261 0.111537C4.88528 0.217816 4.75728 0.390023 4.70664 0.59046L0.0266423 19.3105C-0.00019192 19.4105 -0.00684094 19.5148 0.0070829 19.6175C0.0210067 19.7201 0.0552248 19.8189 0.107741 19.9081C0.160257 19.9974 0.23002 20.0753 0.31296 20.1373C0.395901 20.1993 0.490358 20.2442 0.590822 20.2693C0.691286 20.2944 0.795746 20.2993 0.898108 20.2836C1.00047 20.2679 1.09869 20.232 1.18702 20.178C1.27536 20.1239 1.35206 20.0528 1.41263 19.9688C1.47321 19.8849 1.51645 19.7896 1.53984 19.6888L6.21984 0.96876C6.26987 0.768208 6.23825 0.555998 6.13193 0.378743C6.0256 0.201488 5.85327 0.0736826 5.65278 0.0234ZM20.2598 19.3112L15.5798 0.59124C15.5268 0.393673 15.3983 0.224835 15.222 0.1211C15.0457 0.0173654 14.8358 -0.0129633 14.6373 0.0366482C14.4389 0.0862597 14.2678 0.211841 14.1611 0.386336C14.0544 0.56083 14.0204 0.770273 14.0666 0.96954L18.7466 19.6895C18.8005 19.886 18.9291 20.0536 19.105 20.1565C19.2809 20.2594 19.49 20.2894 19.6877 20.2401C19.8854 20.1907 20.0559 20.066 20.1628 19.8926C20.2697 19.7192 20.3046 19.5108 20.2598 19.312V19.3112ZM10.1432 0C9.93637 0 9.73798 0.0821783 9.5917 0.228457C9.44542 0.374735 9.36324 0.573131 9.36324 0.78V2.34C9.36324 2.54687 9.44542 2.74526 9.5917 2.89154C9.73798 3.03782 9.93637 3.12 10.1432 3.12C10.3501 3.12 10.5485 3.03782 10.6948 2.89154C10.8411 2.74526 10.9232 2.54687 10.9232 2.34V0.78C10.9232 0.573131 10.8411 0.374735 10.6948 0.228457C10.5485 0.0821783 10.3501 0 10.1432 0ZM10.1432 4.68C9.93637 4.68 9.73798 4.76218 9.5917 4.90846C9.44542 5.05474 9.36324 5.25313 9.36324 5.46V10.14C9.36324 10.3469 9.44542 10.5453 9.5917 10.6915C9.73798 10.8378 9.93637 10.92 10.1432 10.92C10.3501 10.92 10.5485 10.8378 10.6948 10.6915C10.8411 10.5453 10.9232 10.3469 10.9232 10.14V5.46C10.9232 5.25313 10.8411 5.05474 10.6948 4.90846C10.5485 4.76218 10.3501 4.68 10.1432 4.68ZM10.1432 12.48C9.93637 12.48 9.73798 12.5622 9.5917 12.7085C9.44542 12.8547 9.36324 13.0531 9.36324 13.26V19.5C9.36324 19.7069 9.44542 19.9053 9.5917 20.0515C9.73798 20.1978 9.93637 20.28 10.1432 20.28C10.3501 20.28 10.5485 20.1978 10.6948 20.0515C10.8411 19.9053 10.9232 19.7069 10.9232 19.5V13.26C10.9232 13.0531 10.8411 12.8547 10.6948 12.7085C10.5485 12.5622 10.3501 12.48 10.1432 12.48Z" fill="white" fill-opacity="0.8"/>
</svg>
