<svg width="22" height="22" viewBox="0 0 22 22" fill="none" xmlns="http://www.w3.org/2000/svg">
<path fill-rule="evenodd" clip-rule="evenodd" d="M10.6771 0.741078C7.20927 0.727145 3.98711 2.52643 2.18394 5.48382C0.380776 8.44121 0.259731 12.1252 1.86488 15.1942L2.06281 15.58C2.22503 15.8835 2.25897 16.2393 2.15705 16.568C1.87462 17.3181 1.63855 18.0849 1.45019 18.8639C1.45019 19.2591 1.56329 19.4849 1.98741 19.4755C2.7386 19.3096 3.47839 19.0959 4.20224 18.8356C4.514 18.7498 4.84548 18.7696 5.14473 18.8921C5.41805 19.0238 5.97411 19.3626 5.99296 19.3626C9.6246 21.2721 14.06 20.7453 17.1415 18.0384C20.2231 15.3315 21.311 11.0064 19.8762 7.16706C18.4413 3.32775 14.7815 0.771242 10.6771 0.741078Z" stroke="white" stroke-opacity="0.8" stroke-width="1.482" stroke-linecap="round" stroke-linejoin="round"/>
</svg>
