<svg width="14" height="13" viewBox="0 0 14 13" fill="none" xmlns="http://www.w3.org/2000/svg">
<path d="M10.9635 12.9513C10.4783 13.2969 7.36528 11.1063 6.76906 11.1015C6.17285 11.0967 3.02479 13.2369 2.54529 12.8836C2.06579 12.5302 3.19307 8.90106 3.01343 8.33419C2.83378 7.76731 -0.180295 5.44315 0.00850863 4.87922C0.197354 4.31529 4.00706 4.26291 4.49223 3.91734C4.97739 3.57181 6.26268 -0.00476831 6.85893 4.77306e-06C7.4551 0.00481936 8.68232 3.60161 9.16183 3.95494C9.64133 4.30824 13.4497 4.42196 13.6294 4.98883C13.8091 5.55571 10.7578 7.83106 10.569 8.39499C10.3802 8.95892 11.4486 12.6057 10.9635 12.9513Z" fill="#32D34B"/>
</svg>
