<svg width="19" height="13" viewBox="0 0 19 13" fill="none" xmlns="http://www.w3.org/2000/svg">
<path d="M8.32 12.48H10.4C10.972 12.48 11.44 12.012 11.44 11.44C11.44 10.868 10.972 10.4 10.4 10.4H8.32C7.748 10.4 7.28 10.868 7.28 11.44C7.28 12.012 7.748 12.48 8.32 12.48ZM0 1.04C0 1.612 0.468 2.08 1.04 2.08H17.68C18.252 2.08 18.72 1.612 18.72 1.04C18.72 0.468 18.252 0 17.68 0H1.04C0.468 0 0 0.468 0 1.04ZM4.16 7.28H14.56C15.132 7.28 15.6 6.812 15.6 6.24C15.6 5.668 15.132 5.2 14.56 5.2H4.16C3.588 5.2 3.12 5.668 3.12 6.24C3.12 6.812 3.588 7.28 4.16 7.28Z" fill="#131313"/>
</svg>
