<svg width="11" height="13" viewBox="0 0 11 13" fill="none" xmlns="http://www.w3.org/2000/svg">
<path d="M4.20791 0.0017196C3.95669 0.00184272 3.71415 0.0936176 3.52577 0.259829C3.3374 0.426041 3.21614 0.65527 3.18474 0.904519L3.12627 1.37054C3.1192 1.42712 3.12424 1.48456 3.14106 1.53905C3.15787 1.59354 3.18608 1.64383 3.2238 1.6866C3.26152 1.72936 3.3079 1.76362 3.35987 1.7871C3.41183 1.81058 3.4682 1.82275 3.52522 1.82279H3.98092V2.39027H4.4349V1.82279H6.02727V2.39027H6.48296V1.82279H6.93866C7.17941 1.82279 7.36685 1.61128 7.33761 1.37054L7.27743 0.906238C7.24687 0.656953 7.12644 0.427371 6.93871 0.260535C6.75098 0.0936984 6.50884 0.00106458 6.25769 0L4.20791 0.0017196Z" fill="#32D34B"/>
<path fill-rule="evenodd" clip-rule="evenodd" d="M4.39711 2.83206C3.73739 2.83237 3.0987 3.06424 2.59243 3.48723C2.08615 3.91023 1.74442 4.49751 1.62681 5.14667L1.35683 6.62554C1.21036 7.43124 1.13669 8.24849 1.13672 9.06739V9.7432C1.29664 9.77244 1.45313 9.82231 1.60102 9.89797L1.78158 9.98739C1.98723 10.0907 2.22191 10.121 2.44707 10.0734L2.7652 10.0046C2.78239 9.99943 2.80303 9.99771 2.82194 9.99427V9.31674C2.82222 8.33281 2.93414 7.35209 3.15555 6.39339L3.37222 5.45104C3.4213 5.23849 3.54109 5.04891 3.71198 4.91333C3.88286 4.77774 4.09471 4.7042 4.31285 4.70473H6.15284C6.37039 4.70497 6.58144 4.77888 6.75163 4.9144C6.92181 5.04992 7.04109 5.23907 7.09003 5.45104L7.30671 6.39167C7.52825 7.35093 7.64017 8.33223 7.64031 9.31674V9.99427C7.65923 9.99943 7.67986 10.0011 7.69878 10.0046L8.01519 10.0734C8.24035 10.121 8.47502 10.0907 8.68068 9.98739L8.9455 9.85498C9.06628 9.79737 9.19493 9.75796 9.32726 9.73805V9.06739C9.32671 8.24844 9.25247 7.43119 9.10543 6.62554L8.83717 5.14667C8.71951 4.49722 8.37752 3.90971 7.87089 3.48668C7.36426 3.06365 6.72516 2.83197 6.06514 2.83206H4.39711Z" fill="#32D34B"/>
<path fill-rule="evenodd" clip-rule="evenodd" d="M0.211514 10.1127C0.154034 10.1167 0.100199 10.1423 0.0609223 10.1845C0.0216456 10.2266 -0.000133446 10.2821 6.15251e-07 10.3397C6.15251e-07 10.6385 0.0588467 10.9343 0.173179 11.2104C0.287511 11.4864 0.45509 11.7372 0.666348 11.9484C0.877607 12.1597 1.12841 12.3273 1.40443 12.4416C1.68045 12.5559 1.97629 12.6148 2.27505 12.6148H8.19054C8.79362 12.6143 9.37185 12.3744 9.79813 11.9478C10.2244 11.5212 10.4639 10.9428 10.4639 10.3397C10.4639 10.2795 10.44 10.2218 10.3974 10.1792C10.3548 10.1367 10.2971 10.1127 10.2369 10.1127H9.55419C9.40497 10.1128 9.25779 10.1475 9.12429 10.2142L8.85947 10.3466C8.57228 10.4902 8.24469 10.5314 7.93087 10.4635L7.61447 10.3948C6.04337 10.0581 4.41878 10.0581 2.84769 10.3948L2.53128 10.4635C2.21746 10.5314 1.88987 10.4902 1.60268 10.3466L1.4204 10.2538C1.23339 10.1608 1.02737 10.1126 0.818538 10.1127H0.22699C0.22126 10.1125 0.215524 10.1125 0.209794 10.1127H0.211514ZM3.40828 10.792C3.43867 10.7915 3.46884 10.7972 3.49701 10.8086C3.52518 10.82 3.55076 10.837 3.57225 10.8584C3.59374 10.8799 3.6107 10.9055 3.62212 10.9337C3.63353 10.9619 3.63917 10.992 3.63871 11.0224V11.9338C3.63871 11.994 3.6148 12.0518 3.57223 12.0943C3.52966 12.1369 3.47192 12.1608 3.41172 12.1608C3.35152 12.1608 3.29378 12.1369 3.25122 12.0943C3.20865 12.0518 3.18473 11.994 3.18473 11.9338V11.0224C3.18428 10.9926 3.1897 10.963 3.20069 10.9353C3.21168 10.9076 3.22802 10.8823 3.24878 10.8609C3.26953 10.8395 3.29431 10.8224 3.32167 10.8106C3.34904 10.7988 3.37847 10.7924 3.40828 10.792ZM4.31968 10.792C4.34992 10.7918 4.37991 10.7976 4.40788 10.8091C4.43584 10.8206 4.46122 10.8376 4.48253 10.8591C4.50384 10.8805 4.52064 10.906 4.53195 10.9341C4.54326 10.9621 4.54885 10.9922 4.54839 11.0224V11.9338C4.54839 11.994 4.52447 12.0518 4.4819 12.0943C4.43934 12.1369 4.3816 12.1608 4.3214 12.1608C4.2612 12.1608 4.20346 12.1369 4.16089 12.0943C4.11832 12.0518 4.09441 11.994 4.09441 11.9338V11.0224C4.09395 10.9926 4.09938 10.963 4.11036 10.9353C4.12135 10.9076 4.13769 10.8823 4.15845 10.8609C4.17921 10.8395 4.20398 10.8224 4.23135 10.8106C4.25872 10.7988 4.28815 10.7924 4.31796 10.792H4.31968ZM5.22764 10.792C5.25817 10.7913 5.28853 10.7968 5.31689 10.8081C5.34526 10.8194 5.37106 10.8363 5.39273 10.8578C5.41441 10.8793 5.43152 10.905 5.44304 10.9333C5.45456 10.9616 5.46026 10.9919 5.45979 11.0224V11.9338C5.45979 11.9637 5.45389 11.9934 5.44244 12.021C5.43099 12.0487 5.41421 12.0738 5.39305 12.0949C5.37189 12.1161 5.34677 12.1329 5.31913 12.1443C5.29149 12.1558 5.26186 12.1617 5.23194 12.1617C5.20201 12.1617 5.17239 12.1558 5.14474 12.1443C5.1171 12.1329 5.09198 12.1161 5.07082 12.0949C5.04966 12.0738 5.03288 12.0487 5.02143 12.021C5.00998 11.9934 5.00409 11.9637 5.00409 11.9338V11.0224C5.00363 10.9926 5.00905 10.963 5.02004 10.9353C5.03103 10.9076 5.04737 10.8823 5.06813 10.8609C5.08889 10.8395 5.11366 10.8224 5.14103 10.8106C5.1684 10.7988 5.19783 10.7924 5.22764 10.792ZM6.13903 10.792C6.16942 10.7915 6.19959 10.7972 6.22776 10.8086C6.25593 10.82 6.28151 10.837 6.30301 10.8584C6.3245 10.8799 6.34145 10.9055 6.35287 10.9337C6.36428 10.9619 6.36993 10.992 6.36946 11.0224V11.9338C6.36946 11.9942 6.34546 12.0522 6.30273 12.0949C6.26 12.1377 6.20204 12.1617 6.14161 12.1617C6.08118 12.1617 6.02323 12.1377 5.9805 12.0949C5.93777 12.0522 5.91376 11.9942 5.91376 11.9338V11.0224C5.91331 10.9926 5.91873 10.963 5.92972 10.9353C5.94071 10.9076 5.95705 10.8823 5.97781 10.8609C5.99857 10.8395 6.02334 10.8224 6.05071 10.8106C6.07808 10.7988 6.10922 10.7924 6.13903 10.792ZM7.04871 10.792C7.0791 10.7915 7.10927 10.7972 7.13744 10.8086C7.16561 10.82 7.19119 10.837 7.21268 10.8584C7.23417 10.8799 7.25113 10.9055 7.26255 10.9337C7.27396 10.9619 7.2796 10.992 7.27914 11.0224V11.9338C7.27914 11.9942 7.25513 12.0522 7.2124 12.0949C7.16967 12.1377 7.11172 12.1617 7.05129 12.1617C6.99086 12.1617 6.93291 12.1377 6.89018 12.0949C6.84745 12.0522 6.82344 11.9942 6.82344 11.9338V11.0224C6.82299 10.9926 6.82841 10.963 6.8394 10.9353C6.85039 10.9076 6.86673 10.8823 6.88749 10.8609C6.90825 10.8395 6.93302 10.8224 6.96038 10.8106C6.98775 10.7988 7.0189 10.7924 7.04871 10.792ZM2.4986 11.019C2.52899 11.0185 2.55917 11.0242 2.58733 11.0356C2.6155 11.047 2.64109 11.0639 2.66258 11.0854C2.68407 11.1069 2.70102 11.1325 2.71244 11.1607C2.72385 11.1888 2.7295 11.219 2.72903 11.2494V11.9321C2.72903 11.9619 2.72316 11.9914 2.71175 12.019C2.70035 12.0465 2.68363 12.0715 2.66255 12.0926C2.64147 12.1137 2.61645 12.1304 2.58891 12.1418C2.56137 12.1532 2.53185 12.1591 2.50204 12.1591C2.47223 12.1591 2.44272 12.1532 2.41518 12.1418C2.38764 12.1304 2.36262 12.1137 2.34154 12.0926C2.32046 12.0715 2.30374 12.0465 2.29233 12.019C2.28093 11.9914 2.27505 11.9619 2.27505 11.9321V11.2494C2.2746 11.2196 2.28002 11.19 2.29101 11.1623C2.302 11.1346 2.31834 11.1093 2.3391 11.0879C2.35986 11.0665 2.38463 11.0494 2.412 11.0376C2.43937 11.0257 2.46879 11.0194 2.4986 11.019ZM7.95839 11.019C7.98878 11.0185 8.01895 11.0242 8.04712 11.0356C8.07528 11.047 8.10087 11.0639 8.12236 11.0854C8.14385 11.1069 8.16081 11.1325 8.17222 11.1607C8.18364 11.1888 8.18928 11.219 8.18882 11.2494V11.9321C8.18882 11.9923 8.1649 12.05 8.12233 12.0926C8.07977 12.1352 8.02203 12.1591 7.96183 12.1591C7.90163 12.1591 7.84389 12.1352 7.80132 12.0926C7.75875 12.05 7.73484 11.9923 7.73484 11.9321V11.2494C7.73438 11.2196 7.73981 11.19 7.75079 11.1623C7.76178 11.1346 7.77812 11.1093 7.79888 11.0879C7.81964 11.0665 7.84441 11.0494 7.87178 11.0376C7.89915 11.0257 7.92858 11.0194 7.95839 11.019Z" fill="#32D34B"/>
</svg>
